<?xml version="1.0" encoding="utf-8"?>
<!-- Generator: Adobe Illustrator 25.4.2, SVG Export Plug-In . SVG Version: 6.00 Build 0)  -->
<svg version="1.1" id="Logo" xmlns="http://www.w3.org/2000/svg" xmlns:xlink="http://www.w3.org/1999/xlink" x="0px" y="0px"
	viewBox="0 0 1511.26 425.13" style="enable-background:new 0 0 1511.26 425.13;" xml:space="preserve">
	<path d="M437.46,106.27c5.45,0,9.87,4.42,9.87,9.87v33.4c0,5.45-4.42,9.87-9.87,9.87H296.72v-43.27c0-5.45,4.42-9.87,9.87-9.87
	H437.46 M437.46,265.7H296.72v43.27c0,5.45,4.42,9.87,9.87,9.87h130.86c5.45,0,9.87-4.42,9.87-9.87v-33.4
	C447.33,270.12,442.91,265.7,437.46,265.7 M421.64,229.26v-33.4c0-5.45-4.42-9.87-9.87-9.87H297.61v53.14h114.16
	C417.22,239.13,421.64,234.71,421.64,229.26 M614.63,106.27H483.77c-5.45,0-9.87,4.42-9.87,9.87v43.27h140.73
	c5.45,0,9.87-4.42,9.87-9.87v-33.4C624.51,110.69,620.08,106.27,614.63,106.27 M614.63,265.7H473.9v43.27
	c0,5.45,4.42,9.87,9.87,9.87h130.86c5.45,0,9.87-4.42,9.87-9.87v-33.4C624.51,270.12,620.08,265.7,614.63,265.7 M598.82,229.26
	v-33.4c0-5.45-4.42-9.87-9.87-9.87H474.79v53.14h114.16C594.4,239.13,598.82,234.71,598.82,229.26 M106.29,308.98
	c0,5.45,4.42,9.87,9.87,9.87h88.89c32.14,0,58.94-22.82,65.1-53.14H106.29V308.98z M651.08,275.58v33.4c0,5.45,4.42,9.87,9.87,9.87
	h80.04c32.14,0,58.94-22.82,65.1-53.14H660.95C655.5,265.7,651.08,270.12,651.08,275.58 M796.21,106.27h-84.47
	c-32.14,0-58.94,22.82-65.1,53.14h149.56c5.45,0,9.87-4.42,9.87-9.87v-33.4C806.08,110.69,801.66,106.27,796.21,106.27
	 M205.06,185.99h-98.77v53.14h163.86C264,208.81,237.19,185.99,205.06,185.99 M740.99,186l-94.34-0.01
	c6.16,30.32,32.96,53.14,65.09,53.14l94.34,0.01C799.93,208.81,773.12,186,740.99,186 M191.06,106.29l-74.9-0.01
	c-5.45,0-9.87,4.42-9.87,9.87v43.27h137.28C243.56,130.28,220.12,106.63,191.06,106.29 M1029.71,110.51V314.6
	c0,2.83-1.4,4.24-4.2,4.24h-21.28c-2.8,0-4.2-1.41-4.2-4.24v-82.36c0-1.21-0.51-1.82-1.51-1.82h-107.8c-1.21,0-1.82,0.61-1.82,1.82
	v82.36c0,2.83-1.31,4.24-3.94,4.24h-21.5c-2.83,0-4.24-1.41-4.24-4.24V110.51c0-2.82,1.41-4.24,4.24-4.24h21.5
	c2.62,0,3.94,1.41,3.94,4.22v92.68c0,1.01,0.61,1.51,1.82,1.51h107.8c1.01,0,1.51-0.5,1.51-1.51V110.5c0-2.81,1.4-4.22,4.2-4.22
	h21.28C1028.31,106.27,1029.71,107.69,1029.71,110.51z M1075.92,303.1c-7.47-7.27-12.77-15.49-15.9-24.68
	c-3.13-9.18-4.69-21.04-4.69-35.58V110.51c0-2.82,1.4-4.24,4.2-4.24h21.28c2.8,0,4.2,1.42,4.2,4.24v132.93
	c0,8.48,0.96,15.95,2.88,22.41c1.92,6.46,5.21,12.21,9.87,17.26c4.66,4.85,10.22,8.28,16.7,10.3c6.48,2.02,13.46,3.03,20.96,3.03
	c14.98,0,27.23-4.64,36.75-13.93c10.12-10.09,15.18-24.32,15.18-42.69v-129.3c0-2.82,1.41-4.24,4.24-4.24h21.2
	c2.83,0,4.24,1.42,4.24,4.24V314.6c0,2.83-1.41,4.24-4.24,4.24h-21.2c-2.83,0-4.24-1.41-4.24-4.24v-13.93
	c0-1.21-0.51-1.91-1.51-2.12c-0.81-0.2-2.02,0.41-3.63,1.82c-13.53,14.53-31.49,21.8-53.9,21.8c-10.3,0-19.99-1.57-29.07-4.69
	C1090.15,314.35,1082.38,309.56,1075.92,303.1z M1373.04,209.68c11.52,4.65,19.56,11.17,24.11,19.56
	c4.55,8.39,6.82,19.06,6.82,31.99c0,18-5.75,32.14-17.25,42.45c-11.91,10.11-27.24,15.16-46.01,15.16h-93.83
	c-2.82,0-4.24-1.41-4.24-4.24V110.21c0-2.63,1.41-3.94,4.24-3.94h84.44c11.5,0,20.88,1.06,28.14,3.18
	c7.26,2.12,13.82,5.51,19.67,10.16c6.25,5.06,11.15,11.07,14.68,18.04c3.53,6.97,5.3,14.61,5.3,22.9c0,11.32-2.12,20.72-6.37,28.2
	c-4.24,7.48-10.82,13.85-19.71,19.1C1371.42,208.67,1371.42,209.27,1373.04,209.68z M1272.44,195.3c0,1.21,0.5,1.82,1.51,1.82H1333
	c11.51,0,20.44-2.82,26.8-8.48c6.36-5.65,9.54-13.63,9.54-23.92c0-10.3-3.18-18.27-9.54-23.92c-6.36-5.65-15.29-8.48-26.8-8.48
	h-59.05c-1.01,0-1.51,0.6-1.51,1.82V195.3z M1353.68,290.23c4.76-1.91,8.65-4.49,11.69-7.72c3.04-3.22,5.26-6.96,6.68-11.2
	c1.42-4.24,2.13-8.78,2.13-13.63c0-10.3-3.09-18.78-9.26-25.44c-6.18-6.66-15.64-9.99-28.4-9.99h-62.56c-1.01,0-1.52,0.6-1.52,1.82
	v67.22c0,1.21,0.51,1.82,1.52,1.82h62.56C1343.2,293.1,1348.92,292.15,1353.68,290.23z" />
</svg>